<svg width="650" height="212.36" xmlns="http://www.w3.org/2000/svg">
 <defs>
  <style>.cls-1,.cls-3{fill:#8c2898;}.cls-2{clip-path:url(#clip-path);}.cls-3{opacity:0.9;}.cls-4{font-size:46.9px;font-family:Nunito-Regular, Nunito;}.cls-15,.cls-4{fill:#fff;}.cls-5{letter-spacing:-0.02em;}.cls-6{letter-spacing:-0.02em;}.cls-7{letter-spacing:-0.04em;}.cls-8{letter-spacing:-0.07em;}.cls-9{letter-spacing:-0.01em;}.cls-10{letter-spacing:-0.01em;}.cls-11{letter-spacing:0em;}.cls-12{letter-spacing:-0.01em;}.cls-13{letter-spacing:-0.04em;}.cls-14{letter-spacing:0em;}.cls-16{fill:#f6d638;}</style>
  <clipPath id="clip-path">
   <rect height="1728.36" width="1080" class="cls-1" id="_Retângulo_"/>
  </clipPath>
 </defs>
 <title>splash</title>
 <g>
  <title>background</title>
  <rect fill="none" id="canvas_background" height="214.36" width="652" y="-1" x="-1"/>
 </g>
 <g>
  <title>Layer 1</title>
  <path id="svg_20" d="m269.18,163.65q0,12.27 -7.52,18.72a27.37,27.37 0 0 1 -35.29,0q-7.52,-6.44 -7.52,-18.72l0,-132.55q0,-25.46 25.16,-25.47l85.91,0q12,0 18.72,7.52a27.24,27.24 0 0 1 0,35.9q-6.75,7.52 -18.72,7.52l-60.74,0l0,15.33l48.48,0q12,0 18.72,7.52a27.24,27.24 0 0 1 0,35.9q-6.75,7.52 -18.72,7.52l-48.48,0l0,40.81z" class="cls-15"/>
  <path id="svg_21" d="m412.14,163.65q0,12.27 -7.52,18.72a27.37,27.37 0 0 1 -35.29,0q-7.52,-6.44 -7.52,-18.72l0,-132.55q0,-25.46 25.16,-25.47l85.91,0q12,0 18.72,7.52a27.24,27.24 0 0 1 0,35.9q-6.75,7.52 -18.72,7.52l-60.74,0l0,15.33l48.48,0q12,0 18.72,7.52a27.24,27.24 0 0 1 0,35.9q-6.75,7.52 -18.72,7.52l-48.48,0l0,40.81z" class="cls-15"/>
  <path id="svg_22" d="m597.44,18.82a27.65,27.65 0 0 1 9.36,-10a22,22 0 0 1 11.51,-3.22a24.38,24.38 0 0 1 9.82,2.15a33.56,33.56 0 0 1 8.74,5.52a26.1,26.1 0 0 1 6.14,8a21,21 0 0 1 2.3,9.51q0,6.44 -4.3,13.5l-40.5,65.35l0,54.37q0,12.27 -7.52,18.72a26.26,26.26 0 0 1 -17.64,6.44a26.67,26.67 0 0 1 -17.95,-6.44q-7.52,-6.44 -7.52,-18.72l0,-54.36l-40.81,-65.35q-4.3,-7.05 -4.3,-13.5a21,21 0 0 1 2.3,-9.51a26,26 0 0 1 6.14,-8a33.4,33.4 0 0 1 8.74,-5.52a24.35,24.35 0 0 1 9.82,-2.15a22,22 0 0 1 11.51,3.22a27.73,27.73 0 0 1 9.36,10l22.36,38.35l22.44,-38.36z" class="cls-15"/>
  <path id="svg_23" d="m185.32,29.81c-18,-18 -40.36,-27.12 -66.54,-27.12s-48.25,9.14 -66.54,27.43c-18,18 -27.12,40 -27.12,66.22c0,26.8 8.83,48.88 26.8,66.85s40.36,27.12 66.85,27.12c26.17,0 48.56,-9.14 66.54,-27.12s27.12,-40.36 27.12,-66.85c0.01,-26.16 -9.14,-48.55 -27.11,-66.53zm-67.06,81.58a14.89,14.89 0 1 1 14.89,-14.89a14.89,14.89 0 0 1 -14.89,14.89z" class="cls-15"/>
  <path id="svg_24" d="m145.34,69.89a11.64,11.64 0 0 0 -8.52,-3.6l-39.36,0a29.22,29.22 0 0 0 -11.07,2.51a28.2,28.2 0 0 0 -9.56,6.1l-67.76,67.66a11.59,11.59 0 0 0 -3.5,8.52a12.12,12.12 0 0 0 3.5,8.61l46.56,46.46a11.59,11.59 0 0 0 8.52,3.5a12.12,12.12 0 0 0 8.61,-3.5l67.57,-67.66a33.54,33.54 0 0 0 8.61,-20.73l0,-39.35a11.65,11.65 0 0 0 -3.6,-8.52zm-27.08,41.5a14.89,14.89 0 1 1 14.89,-14.89a14.89,14.89 0 0 1 -14.89,14.89z" class="cls-16"/>
 </g>
</svg>