<svg xmlns="http://www.w3.org/2000/svg" viewBox="0 0 45 59.65"><title>Ativo 3</title><g id="cb7ec339-738d-4796-a15e-790f592cfbef" data-name="Camada 2"><g id="0830fa4b-bc89-47be-b1f1-31070e64e836" data-name="Camada 1"><path d="M22.47,0A22.46,22.46,0,0,0,0,22.47C0,28.94,3.23,34.8,6.41,40.2A94.25,94.25,0,0,0,20.35,58.74a3,3,0,0,0,4.29,0A86.7,86.7,0,0,0,37.12,43.08C40.91,37,45,29.9,45,22.47A22.57,22.57,0,0,0,22.47,0Zm0,35.51A13.64,13.64,0,1,1,36.11,21.87,13.64,13.64,0,0,1,22.47,35.51Z" fill="#8c2898"/></g></g></svg>